<svg width="157" height="163" viewBox="0 0 157 163" fill="none" xmlns="http://www.w3.org/2000/svg">
<path d="M146.82 163C147.976 163 149.13 162.971 150.282 162.912C154.151 162.714 157.127 159.418 156.929 155.548C156.731 151.679 153.432 148.698 149.565 148.901C132.439 149.776 114.755 142.336 103.407 129.481C96.5091 121.666 91.8862 111.775 89.9943 101.426C90.1457 101.465 90.2971 101.504 90.4485 101.543C102.142 104.5 114.091 104.103 125.006 100.397C132.117 97.9826 138.719 93.8653 143.599 88.8049C149.428 82.761 152.67 75.6127 152.977 68.1367C153.537 54.4959 143.474 41.2524 129.571 37.3338C117.338 33.8847 103.323 37.4602 92.9892 46.6629C84.3838 54.3264 78.3677 65.7475 76.0493 78.8229C76.0243 78.9632 76.0007 79.1021 75.9771 79.2424C74.156 77.82 72.4488 76.2573 70.8764 74.5626C63.8962 67.0407 59.722 57.0463 58.7385 46.7768C60.561 46.3309 62.3627 45.7752 64.1268 45.1099C70.1915 42.8207 74.9075 39.5424 78.1426 35.3668C82.5363 29.698 83.9351 22.3345 81.7918 16.1475C79.1053 8.39083 71.0028 3.51515 63.3475 5.0487C57.2508 6.2697 52.4766 10.8481 49.1566 18.6548C47.0786 23.5402 45.6853 28.6978 44.988 34C39.847 33.6513 34.7796 32.1817 30.3748 29.6396C21.8361 24.7112 15.538 15.6071 13.9378 5.87798C13.31 2.05522 9.7025 -0.534031 5.87836 0.0938344C2.05421 0.723089 -0.535043 4.33193 0.0942121 8.15469C2.39315 22.1344 11.0916 34.7084 23.3627 41.7913C29.9026 45.5655 37.2855 47.6797 44.763 48.0756C44.9213 49.7244 45.145 51.3774 45.4339 53.0304C47.5092 64.9099 52.7502 75.6558 60.5916 84.1056C64.7866 88.6271 69.6915 92.4554 75.1381 95.4905C75.4603 100.598 76.3243 105.709 77.7245 110.69C80.6624 121.147 85.9062 130.857 92.8892 138.767C99.8721 146.678 108.857 153.086 118.869 157.298C127.787 161.05 137.382 163 146.82 163ZM120.143 50.0842C122.072 50.0842 123.964 50.33 125.763 50.8371C133.459 53.0068 139.255 60.3523 138.959 67.5616C138.579 76.8157 129.122 84.182 120.494 87.1116C110.454 90.5218 99.2262 90.1176 89.1998 86.5046C89.3373 84.7488 89.5567 83.0027 89.8637 81.2719C91.6348 71.2871 96.0576 62.7165 102.32 57.1393C107.416 52.6012 113.971 50.0842 120.143 50.0842ZM66.2326 18.7937C66.9008 18.7937 68.144 19.6118 68.5344 20.7398C69.1247 22.4428 68.5302 24.8668 67.0536 26.7712C65.4964 28.7812 62.9975 30.4745 59.6206 31.8094C60.2026 29.1868 61.0152 26.6198 62.0682 24.1458C63.6226 20.4897 65.2131 18.984 66.1021 18.8062C66.1424 18.7978 66.1868 18.7937 66.2326 18.7937Z" fill="#0DDF72" fill-opacity="0.3"/>
</svg>
