<svg width="123" height="29" viewBox="0 0 123 29" fill="none" xmlns="http://www.w3.org/2000/svg">
<path d="M0 22.5488V2.36475H6.5677C7.34922 2.36475 8.11945 2.46244 8.88218 2.6503C9.65242 2.83065 10.3475 3.13123 10.9712 3.55204C11.5912 3.96534 12.0871 4.51015 12.4591 5.19021C12.8386 5.86276 13.0302 6.68936 13.0302 7.67001C13.0302 8.32377 12.9175 8.91742 12.6996 9.45847C12.4779 9.99952 12.1886 10.4654 11.8279 10.8562C11.4672 11.2469 11.0764 11.5625 10.6556 11.803C11.3056 12.0547 11.8805 12.4342 12.384 12.9452C12.8949 13.4562 13.2932 14.0498 13.5863 14.7186C13.8756 15.3799 14.0221 16.0938 14.0221 16.8528C14.0221 17.8071 13.8343 18.6375 13.466 19.3476C13.1053 20.0615 12.6169 20.6551 12.0082 21.1361C11.3958 21.6095 10.7007 21.9627 9.91919 22.2031C9.13767 22.4361 8.3261 22.5488 7.48448 22.5488H0ZM3.20119 10.7359H6.80817C7.368 10.7359 7.89026 10.6533 8.37119 10.4804C8.85964 10.3114 9.25791 10.0221 9.55849 9.60876C9.85907 9.18795 10.0094 8.61684 10.0094 7.89545C10.0094 7.25671 9.85155 6.74572 9.54346 6.36248C9.24288 5.97172 8.83709 5.69369 8.3261 5.52085C7.81512 5.3405 7.24401 5.25033 6.61279 5.25033H3.20119V10.7359ZM3.20119 19.5279H7.54459C8.20587 19.5279 8.78449 19.4303 9.28797 19.2274C9.78768 19.0282 10.1784 18.7089 10.4602 18.2655C10.7383 17.8146 10.881 17.236 10.881 16.5221C10.881 15.8909 10.7308 15.3574 10.4302 14.914C10.1371 14.4631 9.73132 14.1175 9.21282 13.877C8.70183 13.6366 8.1157 13.5163 7.45442 13.5163H3.20119V19.5279Z" fill="white"/>
<path d="M16.2112 28.6776L18.7812 22.2451L13.2355 8.26807H16.602L20.3743 18.7133L24.1616 8.26807H27.5281L19.5176 28.6776H16.2112Z" fill="white"/>
<path d="M32.3103 22.8164C30.9464 22.8164 29.9094 22.4406 29.1993 21.6892C28.4967 20.9302 28.1472 19.912 28.1472 18.6383V10.8232H25.8478V8.26823H28.1923V4.82658L31.1831 2.49707V8.26823H34.7901V10.8232H31.1831V18.2175C31.1831 18.9314 31.3409 19.4311 31.664 19.7204C31.9834 20.0134 32.3854 20.1562 32.8664 20.1562C33.1857 20.1562 33.5051 20.1074 33.8282 20.0059C34.1589 19.9082 34.4444 19.803 34.6849 19.6903V22.4256C34.4444 22.5271 34.1025 22.6135 33.6629 22.6961C33.2308 22.775 32.7799 22.8164 32.3103 22.8164Z" fill="white"/>
<path d="M41.5456 22.7862C40.3733 22.7862 39.3438 22.5833 38.4646 22.185C37.593 21.7867 36.864 21.2457 36.2854 20.5619C35.7143 19.8705 35.286 19.089 35.008 18.2173C34.7262 17.3456 34.5871 16.4289 34.5871 15.467C34.5871 14.5277 34.7224 13.6147 34.9929 12.7317C35.2635 11.8412 35.673 11.0409 36.2253 10.3271C36.7739 9.60567 37.4727 9.04208 38.3144 8.62878C39.1635 8.20797 40.1667 7.99756 41.3202 7.99756C42.3008 7.99756 43.1537 8.1441 43.8751 8.43341C44.5965 8.7152 45.2014 9.1022 45.6936 9.59064C46.1821 10.0716 46.5803 10.6201 46.8809 11.2288C47.189 11.8412 47.4107 12.4837 47.5422 13.1525C47.6812 13.8138 47.7526 14.4713 47.7526 15.1213C47.7526 15.3843 47.7413 15.6398 47.7226 15.8878C47.7 16.1283 47.6775 16.3011 47.6474 16.3988H37.8034C37.871 17.1014 38.0476 17.7289 38.3294 18.2774C38.6187 18.8185 39.0282 19.2506 39.5618 19.5699C40.0915 19.8818 40.7566 20.0358 41.5606 20.0358C42.2708 20.0358 42.917 19.9269 43.4994 19.7052C44.0893 19.476 44.6453 19.0815 45.1676 18.5179L47.2717 20.3364C46.4902 21.1705 45.6335 21.7867 44.7017 22.185C43.7774 22.5833 42.7254 22.7862 41.5456 22.7862ZM37.8034 14.1294H44.7618C44.7017 13.4193 44.5289 12.7993 44.2508 12.2658C43.9803 11.7248 43.5971 11.304 43.1086 11.0034C42.6164 10.7028 42.0115 10.5525 41.2901 10.5525C40.5462 10.5525 39.9375 10.7141 39.4566 11.0334C38.9756 11.3566 38.5999 11.7849 38.3294 12.3259C38.0664 12.867 37.8935 13.4681 37.8034 14.1294Z" fill="white"/>
<path d="M54.8312 22.7564C53.967 22.7564 53.1216 22.64 52.2913 22.4108C51.4571 22.1703 50.6982 21.8096 50.0068 21.3287C49.3155 20.8478 48.7331 20.2466 48.2635 19.5252C47.8013 18.8038 47.497 17.9584 47.3467 16.9853L50.4727 16.1737C50.5704 17.0379 50.8259 17.7443 51.2392 18.2928C51.6488 18.8451 52.1748 19.2547 52.8173 19.5252C53.456 19.7882 54.1436 19.916 54.8763 19.916C55.9959 19.916 56.8676 19.6567 57.4913 19.1344C58.1225 18.6047 58.4381 17.8983 58.4381 17.0153C58.4381 16.4555 58.2954 15.9746 58.0173 15.5725C57.7468 15.1743 57.3786 14.8286 56.9202 14.5355C56.4581 14.235 55.9358 13.9644 55.3572 13.724C54.7748 13.476 54.1774 13.228 53.5687 12.9875C52.9563 12.7396 52.3589 12.4578 51.7803 12.1459C51.1979 11.8378 50.6756 11.4771 50.2172 11.0638C49.7551 10.643 49.3831 10.1433 49.1051 9.56092C48.8233 8.9823 48.6843 8.28345 48.6843 7.47188C48.6843 6.62274 48.8421 5.86001 49.1652 5.18746C49.4846 4.51867 49.9204 3.95132 50.4727 3.48918C51.0326 3.01952 51.6788 2.66258 52.4115 2.42211C53.1404 2.17414 53.9069 2.04639 54.7109 2.04639C55.9433 2.04639 57.078 2.32443 58.1225 2.87299C59.1746 3.42531 60.035 4.29323 60.7075 5.47302L58.0925 7.09615C57.7318 6.37476 57.2396 5.82996 56.6196 5.45799C56.0072 5.0785 55.3459 4.88688 54.6358 4.88688C54.1248 4.88688 53.6589 4.98833 53.2381 5.18746C52.8248 5.37908 52.4941 5.66088 52.2462 6.02909C51.9944 6.38979 51.8704 6.8106 51.8704 7.29153C51.8704 7.80252 52.0057 8.23836 52.2762 8.59906C52.5543 8.95976 52.9262 9.27537 53.3884 9.54589C53.858 9.81642 54.3841 10.0719 54.9664 10.3124C55.545 10.5453 56.1425 10.7895 56.7549 11.0488C57.3636 11.3005 57.961 11.5861 58.5433 11.9055C59.122 12.2173 59.6442 12.593 60.1064 13.0326C60.5648 13.476 60.933 14.002 61.2035 14.6107C61.4815 15.2119 61.6243 15.9257 61.6243 16.7448C61.6243 17.6766 61.4477 18.5182 61.0983 19.2697C60.7451 20.0136 60.2604 20.6449 59.6405 21.1634C59.028 21.6744 58.3066 22.0726 57.4763 22.3507C56.6534 22.6212 55.7705 22.7564 54.8312 22.7564Z" fill="white"/>
<path d="M62.6533 22.5307V2.34668H65.7493V10.1317C66.2903 9.40283 66.9441 8.86178 67.7181 8.5086C68.4883 8.15917 69.2586 7.98258 70.0326 7.98258C70.9418 7.98258 71.7196 8.1479 72.3621 8.47854C73.0121 8.80167 73.5419 9.24127 73.9552 9.8011C74.3647 10.3647 74.6653 10.9997 74.8569 11.7098C75.056 12.4124 75.1575 13.1376 75.1575 13.889V22.5307H72.0465V14.2948C72.0465 13.8439 72.0051 13.4081 71.9262 12.9873C71.8436 12.5664 71.7046 12.1907 71.5054 11.8601C71.3025 11.5294 71.0283 11.2702 70.6788 11.0786C70.3256 10.8794 69.8748 10.778 69.3262 10.778C68.5522 10.778 67.9022 10.9734 67.3724 11.3641C66.8389 11.7549 66.4331 12.2809 66.1551 12.9422C65.8846 13.6035 65.7493 14.3474 65.7493 15.1665V22.5307H62.6533Z" fill="white"/>
<path d="M76.8128 5.42764V2.34668H80.0591V5.42764H76.8128ZM76.918 22.5307V8.26813H79.9689V22.5307H76.918Z" fill="white"/>
<path d="M82.8998 22.531V10.8234H80.2998V8.26842H82.9299V6.20944C82.9299 5.3077 83.129 4.54873 83.531 3.92502C83.9293 3.30507 84.4628 2.83917 85.1241 2.52732C85.7854 2.20795 86.4993 2.04639 87.2733 2.04639C87.7241 2.04639 88.16 2.10275 88.5808 2.21171C89.0091 2.31315 89.4074 2.44842 89.7681 2.61749L88.8213 5.12735C88.6184 5.01839 88.408 4.92821 88.19 4.85682C87.9684 4.78919 87.7542 4.75162 87.5438 4.75162C87.1305 4.75162 86.7773 4.88688 86.4767 5.15741C86.1837 5.42793 86.0409 5.87129 86.0409 6.47996V8.26842H89.6028V10.8234H86.0409V22.531H82.8998Z" fill="white"/>
<path d="M94.4376 22.8164C93.0737 22.8164 92.0367 22.4406 91.3266 21.6892C90.624 20.9302 90.2746 19.912 90.2746 18.6383V10.8232H87.9751V8.26823H90.3196V4.82658L93.3104 2.49707V8.26823H96.9174V10.8232H93.3104V18.2175C93.3104 18.9314 93.4682 19.4311 93.7914 19.7204C94.1107 20.0134 94.5128 20.1562 94.9937 20.1562C95.3131 20.1562 95.6324 20.1074 95.9555 20.0059C96.2862 19.9082 96.5717 19.803 96.8122 19.6903V22.4256C96.5717 22.5271 96.2298 22.6135 95.7902 22.6961C95.3581 22.775 94.9073 22.8164 94.4376 22.8164Z" fill="white"/>
<path d="M103.673 22.7862C102.5 22.7862 101.471 22.5833 100.592 22.185C99.72 21.7867 98.9911 21.2457 98.4124 20.5619C97.8413 19.8705 97.413 19.089 97.135 18.2173C96.8532 17.3456 96.7142 16.4289 96.7142 15.467C96.7142 14.5277 96.8494 13.6147 97.1199 12.7317C97.3905 11.8412 97.8 11.0409 98.3523 10.3271C98.9009 9.60567 99.5997 9.04208 100.441 8.62878C101.291 8.20797 102.294 7.99756 103.447 7.99756C104.428 7.99756 105.281 8.1441 106.002 8.43341C106.724 8.7152 107.328 9.1022 107.821 9.59064C108.309 10.0716 108.707 10.6201 109.008 11.2288C109.316 11.8412 109.538 12.4837 109.669 13.1525C109.808 13.8138 109.88 14.4713 109.88 15.1213C109.88 15.3843 109.868 15.6398 109.85 15.8878C109.827 16.1283 109.804 16.3011 109.774 16.3988H99.9304C99.998 17.1014 100.175 17.7289 100.456 18.2774C100.746 18.8185 101.155 19.2506 101.689 19.5699C102.219 19.8818 102.884 20.0358 103.688 20.0358C104.398 20.0358 105.044 19.9269 105.626 19.7052C106.216 19.476 106.772 19.0815 107.295 18.5179L109.399 20.3364C108.617 21.1705 107.761 21.7867 106.829 22.185C105.904 22.5833 104.852 22.7862 103.673 22.7862ZM99.9304 14.1294H106.889C106.829 13.4193 106.656 12.7993 106.378 12.2658C106.107 11.7248 105.724 11.304 105.236 11.0034C104.743 10.7028 104.139 10.5525 103.417 10.5525C102.673 10.5525 102.065 10.7141 101.584 11.0334C101.103 11.3566 100.727 11.7849 100.456 12.3259C100.193 12.867 100.021 13.4681 99.9304 14.1294Z" fill="white"/>
<path d="M119.889 2.34668H123V22.5307H120.114L119.994 20.8324C119.491 21.4937 118.875 21.9897 118.146 22.3203C117.424 22.651 116.62 22.8163 115.741 22.8163C114.768 22.8163 113.907 22.6209 113.156 22.2301C112.404 21.8394 111.773 21.2983 111.262 20.607C110.759 19.9157 110.376 19.1266 110.105 18.2324C109.842 17.3419 109.714 16.3951 109.714 15.3919C109.714 14.3925 109.842 13.4456 110.105 12.5514C110.376 11.6609 110.759 10.8757 111.262 10.1919C111.773 9.50052 112.397 8.95947 113.141 8.56872C113.881 8.17044 114.734 7.96755 115.696 7.96755C116.537 7.96755 117.323 8.12536 118.055 8.43345C118.784 8.74531 119.397 9.21497 119.889 9.84619V2.34668ZM116.507 20.096C117.357 20.096 118.048 19.8856 118.581 19.4648C119.122 19.0365 119.517 18.4654 119.769 17.7515C120.017 17.0301 120.144 16.2448 120.144 15.3919C120.144 14.5428 120.017 13.765 119.769 13.0624C119.517 12.3523 119.122 11.7812 118.581 11.3491C118.048 10.9208 117.357 10.7028 116.507 10.7028C115.655 10.7028 114.959 10.9208 114.418 11.3491C113.877 11.7812 113.475 12.3523 113.216 13.0624C112.953 13.765 112.825 14.5428 112.825 15.3919C112.825 16.2335 112.953 17.0151 113.216 17.7364C113.475 18.4503 113.877 19.0214 114.418 19.4498C114.959 19.8818 115.655 20.096 116.507 20.096Z" fill="white"/>
<mask id="mask0_0_34" style="mask-type:luminance" maskUnits="userSpaceOnUse" x="39" y="-2" width="12" height="11">
<path d="M39.5276 -0.503418L49.0455 -1.89185L50.2951 6.67423L40.7772 8.06266L39.5276 -0.503418Z" fill="white"/>
</mask>
<g mask="url(#mask0_0_34)">
<mask id="mask1_0_34" style="mask-type:luminance" maskUnits="userSpaceOnUse" x="38" y="-1" width="11" height="12">
<path d="M48.5219 5.45572L43.1438 10.0212L38.478 4.51914L43.8561 -0.0427679L48.5219 5.45572Z" fill="white"/>
</mask>
<g mask="url(#mask1_0_34)">
<mask id="mask2_0_34" style="mask-type:luminance" maskUnits="userSpaceOnUse" x="38" y="-1" width="11" height="12">
<path d="M48.5219 5.45572L43.1438 10.0212L38.478 4.51914L43.8561 -0.0427679L48.5219 5.45572Z" fill="white"/>
</mask>
<g mask="url(#mask2_0_34)">
<path d="M48.5006 5.47368L40.9086 7.26256L43.8919 -0.000226417C44.3134 2.23496 44.9586 4.39063 48.5006 5.47368Z" fill="#0DDF72"/>
</g>
</g>
</g>
</svg>
