<svg width="40" height="40" viewBox="0 0 40 40" fill="none" xmlns="http://www.w3.org/2000/svg">
<path fill-rule="evenodd" clip-rule="evenodd" d="M25.9721 2.36673C28.1588 3.10173 29.5838 5.16006 29.5838 7.85839C29.5838 9.55339 28.6205 11.1151 27.5455 12.3584C26.4405 13.6401 25.0438 14.7884 23.8205 15.6801L23.6655 15.7934C22.4788 16.6601 21.4988 17.3767 20.0005 17.3767C18.5005 17.3767 17.5238 16.6601 16.3371 15.7934L16.1805 15.6801C14.9571 14.7884 13.5605 13.6401 12.4555 12.3601C11.3838 11.1151 10.4171 9.55339 10.4171 7.85839C10.4171 5.16006 11.8421 3.10339 14.0288 2.36673C15.8955 1.73839 18.0655 2.15339 20.0005 3.56173C21.9355 2.15339 24.1071 1.73839 25.9721 2.36673ZM25.1755 4.73673C24.0888 4.37006 22.4671 4.60673 20.8471 6.09673C20.6165 6.30872 20.3146 6.42637 20.0013 6.42637C19.688 6.42637 19.3861 6.30872 19.1555 6.09673C17.5338 4.60673 15.9138 4.37006 14.8271 4.73673C13.7838 5.08673 12.9171 6.09339 12.9171 7.85839C12.9171 8.63673 13.3921 9.61673 14.3488 10.7267C15.2755 11.8017 16.5021 12.8217 17.6538 13.6601C19.0588 14.6851 19.3921 14.8767 20.0005 14.8767C20.6088 14.8767 20.9421 14.6851 22.3488 13.6601C23.4988 12.8217 24.7255 11.8017 25.6521 10.7267C26.6105 9.61673 27.0855 8.63673 27.0855 7.85839C27.0855 6.09173 26.2171 5.08673 25.1755 4.73673ZM14.4738 24.0801C17.5838 23.4767 20.9121 23.6134 23.6071 25.2201C23.9838 25.4451 24.3405 25.7267 24.6488 26.0734C25.2755 26.7767 25.5988 27.6517 25.6138 28.5284C25.9316 28.3217 26.2521 28.0956 26.5755 27.8501L29.5888 25.5751C30.3437 25.021 31.2557 24.7223 32.1921 24.7223C33.1285 24.7223 34.0405 25.021 34.7955 25.5751C36.1871 26.6251 36.7438 28.5134 35.7455 30.1117C35.0371 31.2484 33.9705 32.8201 32.8838 33.8267C31.7838 34.8434 30.2221 35.6984 29.0405 36.2701C27.6038 36.9634 26.0538 37.3451 24.5455 37.5901C21.4621 38.0901 18.2555 38.0117 15.2088 37.3851C13.6376 37.062 12.0378 36.8984 10.4338 36.8967H6.66713C6.33561 36.8967 6.01767 36.765 5.78325 36.5306C5.54883 36.2962 5.41713 35.9782 5.41713 35.6467C5.41713 35.3152 5.54883 34.9973 5.78325 34.7628C6.01767 34.5284 6.33561 34.3967 6.66713 34.3967H10.4338C12.2038 34.3967 13.9921 34.5801 15.7138 34.9367C18.4907 35.5065 21.3479 35.5692 24.1471 35.1217C25.5271 34.8984 26.8171 34.5667 27.9538 34.0184C29.0921 33.4684 30.3721 32.7451 31.1838 31.9917C32.0055 31.2317 32.9238 29.9134 33.6255 28.7901C33.8371 28.4501 33.8071 27.9601 33.2888 27.5684C32.968 27.3417 32.5849 27.2199 32.1921 27.2199C31.7993 27.2199 31.4162 27.3417 31.0955 27.5684L28.0838 29.8451C26.8805 30.7534 25.4005 31.7251 23.5655 32.0167C23.3732 32.0477 23.1804 32.0749 22.9871 32.0984C22.8916 32.1151 22.7921 32.1262 22.6888 32.1317C21.618 32.2357 20.5396 32.2357 19.4688 32.1317C19.3028 32.1197 19.1409 32.0746 18.9925 31.9992C18.8441 31.9237 18.7123 31.8194 18.6048 31.6923C18.4973 31.5652 18.4163 31.418 18.3665 31.2592C18.3166 31.1003 18.299 30.9332 18.3147 30.7675C18.3303 30.6018 18.3789 30.4408 18.4576 30.2942C18.5363 30.1475 18.6435 30.018 18.7728 29.9133C18.9022 29.8086 19.0512 29.7308 19.2111 29.6844C19.371 29.6381 19.5385 29.6241 19.7038 29.6434C20.7505 29.7417 21.6871 29.7201 22.4838 29.6384L22.5338 29.6334C22.6893 29.5369 22.8214 29.4071 22.9207 29.2533C23.02 29.0996 23.0838 28.9257 23.1078 28.7442C23.1317 28.5628 23.115 28.3783 23.059 28.2041C23.003 28.0299 22.909 27.8702 22.7838 27.7367C22.6501 27.5914 22.4957 27.4668 22.3255 27.3667C20.3571 26.1917 17.7271 25.9967 14.9488 26.5334C12.2347 27.0782 9.66186 28.176 7.39046 29.7584C7.25652 29.8534 7.10517 29.9211 6.94507 29.9576C6.78496 29.9941 6.61924 29.9987 6.45736 29.9711C6.29547 29.9436 6.1406 29.8844 6.00158 29.797C5.86256 29.7096 5.74212 29.5957 5.64713 29.4617C5.55214 29.3278 5.48447 29.1764 5.44797 29.0163C5.41147 28.8562 5.40686 28.6905 5.43441 28.5286C5.49004 28.2017 5.67328 27.9102 5.9438 27.7184C8.50601 25.9307 11.4101 24.692 14.4738 24.0801Z" fill="#878787"/>
</svg>
