<svg width="69" height="163" viewBox="0 0 69 163" fill="none" xmlns="http://www.w3.org/2000/svg">
<path d="M58.8203 163C59.976 163 61.1304 162.971 62.2819 162.912C66.1505 162.714 69.1273 159.418 68.9287 155.548C68.7314 151.679 65.4324 148.698 61.5651 148.901C44.4391 149.776 26.7547 142.336 15.4073 129.481C8.5091 121.666 3.88624 111.775 1.99431 101.426C2.14571 101.465 2.29713 101.504 2.44853 101.543C14.1418 104.5 26.0907 104.103 37.0061 100.397C44.1169 97.9826 50.7192 93.8653 55.599 88.8049C61.4276 82.761 64.6697 75.6127 64.9767 68.1367C65.5365 54.4959 55.474 41.2524 41.5707 37.3338C29.3384 33.8847 15.3226 37.4602 4.98917 46.6629C-3.61621 54.3264 -9.63232 65.7475 -11.9507 78.8229C-11.9757 78.9632 -11.9993 79.1021 -12.0229 79.2424C-13.844 77.82 -15.5512 76.2573 -17.1236 74.5626C-24.1038 67.0407 -28.278 57.0463 -29.2615 46.7768C-27.439 46.3309 -25.6373 45.7752 -23.8732 45.1099C-17.8085 42.8207 -13.0925 39.5424 -9.85735 35.3668C-5.46368 29.698 -4.06487 22.3345 -6.20823 16.1475C-8.89472 8.39083 -16.9972 3.51515 -24.6525 5.0487C-30.7492 6.2697 -35.5234 10.8481 -38.8434 18.6548C-40.9214 23.5402 -42.3147 28.6978 -43.012 34C-48.153 33.6513 -53.2204 32.1817 -57.6252 29.6396C-66.1639 24.7112 -72.462 15.6071 -74.0622 5.87798C-74.69 2.05522 -78.2975 -0.534031 -82.1216 0.0938344C-85.9458 0.723089 -88.535 4.33193 -87.9058 8.15469C-85.6069 22.1344 -76.9084 34.7084 -64.6373 41.7913C-58.0974 45.5655 -50.7145 47.6797 -43.237 48.0756C-43.0787 49.7244 -42.855 51.3774 -42.5661 53.0304C-40.4908 64.9099 -35.2498 75.6558 -27.4084 84.1056C-23.2134 88.6271 -18.3085 92.4554 -12.8619 95.4905C-12.5397 100.598 -11.6757 105.709 -10.2755 110.69C-7.33755 121.147 -2.09377 130.857 4.88915 138.767C11.8721 146.678 20.8567 153.086 30.8692 157.298C39.7871 161.05 49.3815 163 58.8203 163ZM32.143 50.0842C34.0724 50.0842 35.9643 50.33 37.7632 50.8371C45.4587 53.0068 51.2554 60.3523 50.9595 67.5616C50.5789 76.8157 41.122 84.182 32.4944 87.1116C22.4541 90.5218 11.2262 90.1176 1.19975 86.5046C1.33727 84.7488 1.55675 83.0027 1.86373 81.2719C3.63481 71.2871 8.05765 62.7165 14.3196 57.1393C19.4162 52.6012 25.9713 50.0842 32.143 50.0842ZM-21.7674 18.7937C-21.0992 18.7937 -19.856 19.6118 -19.4656 20.7398C-18.8753 22.4428 -19.4698 24.8668 -20.9464 26.7712C-22.5036 28.7812 -25.0025 30.4745 -28.3794 31.8094C-27.7974 29.1868 -26.9848 26.6198 -25.9318 24.1458C-24.3774 20.4897 -22.7869 18.984 -21.8979 18.8062C-21.8576 18.7978 -21.8132 18.7937 -21.7674 18.7937Z" fill="#0DDF72" fill-opacity="0.3"/>
</svg>
