<svg width="180" height="224" viewBox="0 0 180 224" fill="none" xmlns="http://www.w3.org/2000/svg">
<path d="M201.139 223.305C202.722 223.305 204.304 223.265 205.881 223.185C211.181 222.913 215.259 218.397 214.987 213.095C214.717 207.795 210.197 203.711 204.899 203.989C181.437 205.188 157.21 194.996 141.665 177.385C132.214 166.679 125.881 153.128 123.289 138.95C123.497 139.004 123.704 139.057 123.912 139.11C139.931 143.162 156.301 142.617 171.254 137.54C180.996 134.233 190.041 128.592 196.726 121.66C204.711 113.38 209.153 103.587 209.573 93.345C210.34 74.6576 196.555 56.5144 177.508 51.146C160.75 46.4209 141.549 51.3192 127.392 63.9266C115.603 74.4254 107.361 90.0719 104.185 107.985C104.151 108.177 104.118 108.367 104.086 108.56C101.591 106.611 99.2525 104.47 97.0983 102.148C87.5357 91.8436 81.8172 78.1515 80.4699 64.0826C82.9666 63.4718 85.4348 62.7106 87.8516 61.799C96.1601 58.6629 102.621 54.1718 107.053 48.4514C113.072 40.6853 114.988 30.5975 112.052 22.1215C108.372 11.4952 97.2714 4.81564 86.784 6.91655C78.4318 8.58928 71.8912 14.8616 67.343 25.5564C64.4961 32.2493 62.5874 39.3151 61.6321 46.5788C54.5891 46.1012 47.6469 44.0878 41.6125 40.6053C29.9148 33.8535 21.2866 21.3812 19.0944 8.05264C18.2342 2.81558 13.2921 -0.731605 8.05315 0.12855C2.8142 0.990608 -0.732991 5.9346 0.129067 11.1717C3.27853 30.3234 15.1951 47.5494 32.0062 57.2528C40.9655 62.4232 51.08 65.3196 61.3238 65.8619C61.5407 68.1208 61.8471 70.3854 62.2429 72.6499C65.086 88.9244 72.266 103.646 83.0085 115.222C88.7555 121.416 95.475 126.661 102.937 130.819C103.378 137.816 104.562 144.817 106.48 151.642C110.505 165.967 117.689 179.269 127.255 190.107C136.821 200.944 149.13 209.723 162.847 215.493C175.064 220.633 188.208 223.305 201.139 223.305ZM164.592 68.6137C167.235 68.6137 169.827 68.9505 172.291 69.6451C182.834 72.6176 190.775 82.6806 190.37 92.5572C189.849 105.235 176.893 115.327 165.073 119.34C151.318 124.012 135.937 123.458 122.201 118.508C122.389 116.103 122.69 113.711 123.11 111.34C125.537 97.661 131.596 85.9195 140.175 78.279C147.157 72.0619 156.137 68.6137 164.592 68.6137ZM90.7365 25.7467C91.6519 25.7467 93.3551 26.8676 93.8898 28.4128C94.6986 30.7459 93.8841 34.0666 91.8612 36.6756C89.728 39.4293 86.3045 41.749 81.6783 43.5778C82.4756 39.985 83.5889 36.4682 85.0314 33.079C87.1608 28.0703 89.3397 26.0074 90.5577 25.7638C90.6128 25.7524 90.6737 25.7467 90.7365 25.7467Z" fill="#0DDF72"/>
</svg>
