<svg width="30" height="30" viewBox="0 0 30 30" fill="none" xmlns="http://www.w3.org/2000/svg">
<circle cx="15" cy="15" r="15" fill="black"/>
<path d="M20.0215 5.13184C22.7737 5.27154 24.9617 7.54714 24.9619 10.334V19.7529C24.9619 22.63 22.63 24.9619 19.7529 24.9619H10.334C7.54714 24.9617 5.27154 22.7737 5.13184 20.0215L5.125 19.7529V10.334C5.1252 7.45723 7.45723 5.1252 10.334 5.125H19.7529L20.0215 5.13184ZM10.334 6.125C8.00951 6.1252 6.1252 8.00951 6.125 10.334V19.7529L6.13086 19.9697C6.24364 22.1937 8.08207 23.9617 10.334 23.9619H19.7529C22.0777 23.9619 23.9619 22.0777 23.9619 19.7529V10.334C23.9617 8.08207 22.1937 6.24364 19.9697 6.13086L19.7529 6.125H10.334ZM13.1191 11.2148C13.9158 10.8015 14.8231 10.6496 15.7109 10.7812C16.6165 10.9156 17.4552 11.338 18.1025 11.9854C18.7498 12.6327 19.1724 13.4714 19.3066 14.377C19.4382 15.2647 19.2864 16.1721 18.873 16.9688C18.4597 17.7652 17.8053 18.4109 17.0039 18.8145C16.2023 19.2179 15.2933 19.3583 14.4072 19.2158C13.5211 19.0732 12.702 18.6551 12.0674 18.0205C11.4327 17.3858 11.0147 16.5668 10.8721 15.6807C10.7295 14.7945 10.8699 13.8857 11.2734 13.084C11.677 12.2825 12.3226 11.6282 13.1191 11.2148ZM15.5645 11.7705C14.8847 11.6697 14.19 11.7861 13.5801 12.1025C12.9701 12.4191 12.475 12.9203 12.166 13.5342C11.8573 14.1478 11.7494 14.8432 11.8584 15.5215C11.9676 16.2 12.2885 16.8275 12.7744 17.3135C13.2603 17.7992 13.8872 18.1193 14.5654 18.2285C15.2438 18.3376 15.94 18.2307 16.5537 17.9219C17.1675 17.6129 17.6688 17.1178 17.9854 16.5078C18.3018 15.8978 18.4182 15.2032 18.3174 14.5234C18.2146 13.8301 17.8911 13.188 17.3955 12.6924C16.8999 12.1968 16.2577 11.8734 15.5645 11.7705ZM20.2344 9.36328C20.5105 9.36328 20.7343 9.5872 20.7344 9.86328C20.7344 10.1394 20.5105 10.3633 20.2344 10.3633H20.2236C19.9476 10.3631 19.7236 10.1393 19.7236 9.86328C19.7237 9.58732 19.9477 9.36346 20.2236 9.36328H20.2344Z" fill="black"/>
<path d="M20.0215 5.13184L20.0468 4.63232L20.0342 4.632L20.0215 5.13184ZM24.9619 10.334H25.4619V10.334L24.9619 10.334ZM10.334 24.9619L10.334 25.4619H10.334V24.9619ZM5.13184 20.0215L4.63184 20.0342L4.63248 20.0468L5.13184 20.0215ZM5.125 19.7529H4.62484L4.62516 19.7657L5.125 19.7529ZM5.125 10.334L4.625 10.334V10.334H5.125ZM10.334 5.125V4.625H10.334L10.334 5.125ZM19.7529 5.125L19.7657 4.625H19.7529V5.125ZM10.334 6.125V5.625H10.3339L10.334 6.125ZM6.125 10.334L5.625 10.3339V10.334H6.125ZM6.125 19.7529H5.62482L5.62518 19.7664L6.125 19.7529ZM6.13086 19.9697L5.6309 19.9832L5.6315 19.995L6.13086 19.9697ZM10.334 23.9619L10.3339 24.4619H10.334V23.9619ZM23.9619 10.334H24.4619V10.3339L23.9619 10.334ZM19.9697 6.13086L19.9951 5.63136L19.9832 5.63104L19.9697 6.13086ZM19.7529 6.125L19.7664 5.625H19.7529V6.125ZM13.1191 11.2148L12.8889 10.771L12.8888 10.771L13.1191 11.2148ZM15.7109 10.7812L15.7843 10.2867L15.7843 10.2867L15.7109 10.7812ZM18.1025 11.9854L18.4561 11.6318L18.4561 11.6318L18.1025 11.9854ZM19.3066 14.377L19.8012 14.3036L19.8012 14.3036L19.3066 14.377ZM18.873 16.9688L19.3168 17.1991L19.3169 17.199L18.873 16.9688ZM17.0039 18.8145L17.2287 19.2611L17.2288 19.261L17.0039 18.8145ZM14.4072 19.2158L14.3278 19.7095L14.3279 19.7095L14.4072 19.2158ZM12.0674 18.0205L11.7138 18.3741L11.7139 18.3741L12.0674 18.0205ZM10.8721 15.6807L10.3784 15.7601L10.3784 15.7601L10.8721 15.6807ZM11.2734 13.084L10.8268 12.8591L10.8268 12.8592L11.2734 13.084ZM15.5645 11.7705L15.6379 11.2759L15.6378 11.2759L15.5645 11.7705ZM13.5801 12.1025L13.3498 11.6587L13.3498 11.6587L13.5801 12.1025ZM12.166 13.5342L11.7194 13.3094L11.7194 13.3094L12.166 13.5342ZM11.8584 15.5215L11.3647 15.6008L11.3648 15.6009L11.8584 15.5215ZM12.7744 17.3135L12.4209 17.667L12.4209 17.6671L12.7744 17.3135ZM14.5654 18.2285L14.4859 18.7222L14.486 18.7222L14.5654 18.2285ZM16.5537 17.9219L16.7785 18.3685L16.7785 18.3685L16.5537 17.9219ZM17.9854 16.5078L18.4292 16.7381L18.4292 16.7381L17.9854 16.5078ZM18.3174 14.5234L18.812 14.4501L18.812 14.4501L18.3174 14.5234ZM17.3955 12.6924L17.7491 12.3389L17.7491 12.3388L17.3955 12.6924ZM20.7344 9.86328H21.2344V9.86314L20.7344 9.86328ZM20.2236 10.3633L20.2233 10.8633H20.2236V10.3633ZM19.7236 9.86328L19.2236 9.86314V9.86328H19.7236ZM20.2236 9.36328V8.86328H20.2233L20.2236 9.36328ZM20.0215 5.13184L19.9961 5.63119C22.4837 5.75746 24.4617 7.81475 24.4619 10.334L24.9619 10.334L25.4619 10.334C25.4617 7.27952 23.0636 4.78561 20.0468 4.63248L20.0215 5.13184ZM24.9619 10.334H24.4619V19.7529H24.9619H25.4619V10.334H24.9619ZM24.9619 19.7529H24.4619C24.4619 22.3538 22.3538 24.4619 19.7529 24.4619V24.9619V25.4619C22.9061 25.4619 25.4619 22.9061 25.4619 19.7529H24.9619ZM19.7529 24.9619V24.4619H10.334V24.9619V25.4619H19.7529V24.9619ZM10.334 24.9619L10.334 24.4619C7.81475 24.4617 5.75746 22.4837 5.63119 19.9961L5.13184 20.0215L4.63248 20.0468C4.78561 23.0636 7.27952 25.4617 10.334 25.4619L10.334 24.9619ZM5.13184 20.0215L5.63167 20.0088L5.62484 19.7402L5.125 19.7529L4.62516 19.7657L4.632 20.0342L5.13184 20.0215ZM5.125 19.7529H5.625V10.334H5.125H4.625V19.7529H5.125ZM5.125 10.334L5.625 10.334C5.62518 7.73338 7.73338 5.62518 10.334 5.625L10.334 5.125L10.334 4.625C7.18108 4.62522 4.62522 7.18108 4.625 10.334L5.125 10.334ZM10.334 5.125V5.625H19.7529V5.125V4.625H10.334V5.125ZM19.7529 5.125L19.7402 5.62484L20.0088 5.63167L20.0215 5.13184L20.0342 4.632L19.7657 4.62516L19.7529 5.125ZM10.334 6.125L10.3339 5.625C7.73336 5.62522 5.62522 7.73336 5.625 10.3339L6.125 10.334L6.625 10.334C6.62517 8.28567 8.28567 6.62517 10.334 6.625L10.334 6.125ZM6.125 10.334H5.625V19.7529H6.125H6.625V10.334H6.125ZM6.125 19.7529L5.62518 19.7664L5.63104 19.9832L6.13086 19.9697L6.63068 19.9562L6.62482 19.7394L6.125 19.7529ZM6.13086 19.9697L5.6315 19.995C5.7577 22.4836 7.8144 24.4617 10.3339 24.4619L10.334 23.9619L10.334 23.4619C8.34974 23.4617 6.72958 21.9037 6.63022 19.9444L6.13086 19.9697ZM10.334 23.9619V24.4619H19.7529V23.9619V23.4619H10.334V23.9619ZM19.7529 23.9619V24.4619C22.3538 24.4619 24.4619 22.3538 24.4619 19.7529H23.9619H23.4619C23.4619 21.8015 21.8015 23.4619 19.7529 23.4619V23.9619ZM23.9619 19.7529H24.4619V10.334H23.9619H23.4619V19.7529H23.9619ZM23.9619 10.334L24.4619 10.3339C24.4617 7.8144 22.4836 5.7577 19.995 5.6315L19.9697 6.13086L19.9444 6.63022C21.9037 6.72958 23.4617 8.34974 23.4619 10.334L23.9619 10.334ZM19.9697 6.13086L19.9832 5.63104L19.7664 5.62518L19.7529 6.125L19.7394 6.62482L19.9562 6.63068L19.9697 6.13086ZM19.7529 6.125V5.625H10.334V6.125V6.625H19.7529V6.125ZM13.1191 11.2148L13.3494 11.6587C14.0528 11.2937 14.8539 11.1596 15.6376 11.2758L15.7109 10.7812L15.7843 10.2867C14.7924 10.1396 13.7788 10.3093 12.8889 10.771L13.1191 11.2148ZM15.7109 10.7812L15.6376 11.2758C16.4369 11.3944 17.1774 11.7674 17.749 12.3389L18.1025 11.9854L18.4561 11.6318C17.733 10.9087 16.7961 10.4368 15.7843 10.2867L15.7109 10.7812ZM18.1025 11.9854L17.749 12.3389C18.3205 12.9105 18.6935 13.651 18.812 14.4503L19.3066 14.377L19.8012 14.3036C19.6512 13.2918 19.1791 12.355 18.4561 11.6318L18.1025 11.9854ZM19.3066 14.377L18.812 14.4503C18.9282 15.234 18.7942 16.0351 18.4292 16.7385L18.873 16.9688L19.3169 17.199C19.7786 16.3091 19.9483 15.2955 19.8012 14.3036L19.3066 14.377ZM18.873 16.9688L18.4292 16.7384C18.0645 17.4414 17.4867 18.0115 16.779 18.3679L17.0039 18.8145L17.2288 19.261C18.1239 18.8103 18.855 18.089 19.3168 17.1991L18.873 16.9688ZM17.0039 18.8145L16.7791 18.3678C16.0715 18.724 15.2689 18.8479 14.4866 18.7222L14.4072 19.2158L14.3279 19.7095C15.3176 19.8686 16.3331 19.7119 17.2287 19.2611L17.0039 18.8145ZM14.4072 19.2158L14.4867 18.7222C13.7043 18.5963 12.9811 18.227 12.4209 17.6669L12.0674 18.0205L11.7139 18.3741C12.423 19.0831 13.338 19.5502 14.3278 19.7095L14.4072 19.2158ZM12.0674 18.0205L12.4209 17.667C11.8608 17.1068 11.4917 16.3838 11.3657 15.6012L10.8721 15.6807L10.3784 15.7601C10.5377 16.7499 11.0046 17.6649 11.7138 18.3741L12.0674 18.0205ZM10.8721 15.6807L11.3657 15.6012C11.2398 14.8188 11.3638 14.0166 11.7201 13.3088L11.2734 13.084L10.8268 12.8592C10.376 13.7549 10.2191 14.7701 10.3784 15.7601L10.8721 15.6807ZM11.2734 13.084L11.72 13.3088C12.0764 12.601 12.6464 12.0235 13.3494 11.6586L13.1191 11.2148L12.8888 10.771C11.9988 11.2329 11.2776 11.9639 10.8268 12.8591L11.2734 13.084ZM15.5645 11.7705L15.6378 11.2759C14.8539 11.1597 14.053 11.2939 13.3498 11.6587L13.5801 12.1025L13.8103 12.5464C14.3271 12.2783 14.9155 12.1797 15.4911 12.2651L15.5645 11.7705ZM13.5801 12.1025L13.3498 11.6587C12.6464 12.0237 12.0757 12.6016 11.7194 13.3094L12.166 13.5342L12.6126 13.759C12.8743 13.239 13.2937 12.8144 13.8104 12.5464L13.5801 12.1025ZM12.166 13.5342L11.7194 13.3094C11.3634 14.0168 11.239 14.8186 11.3647 15.6008L11.8584 15.5215L12.3521 15.4421C12.2597 14.8679 12.3511 14.2788 12.6127 13.7589L12.166 13.5342ZM11.8584 15.5215L11.3648 15.6009C11.4907 16.3833 11.8606 17.1068 12.4209 17.667L12.7744 17.3135L13.128 16.9599C12.7163 16.5483 12.4445 16.0167 12.352 15.442L11.8584 15.5215ZM12.7744 17.3135L12.4209 17.6671C12.9812 18.2272 13.704 18.5962 14.4859 18.7222L14.5654 18.2285L14.6449 17.7349C14.0703 17.6423 13.5393 17.3712 13.1279 16.9599L12.7744 17.3135ZM14.5654 18.2285L14.486 18.7222C15.2678 18.8479 16.0705 18.7248 16.7785 18.3685L16.5537 17.9219L16.329 17.4752C15.8095 17.7366 15.2197 17.8273 14.6448 17.7349L14.5654 18.2285ZM16.5537 17.9219L16.7785 18.3685C17.4862 18.0122 18.0642 17.4415 18.4292 16.7381L17.9854 16.5078L17.5415 16.2775C17.2735 16.7941 16.8488 17.2135 16.3289 17.4753L16.5537 17.9219ZM17.9854 16.5078L18.4292 16.7381C18.7941 16.0348 18.9282 15.234 18.812 14.4501L18.3174 14.5234L17.8228 14.5968C17.9081 15.1724 17.8096 15.7608 17.5415 16.2775L17.9854 16.5078ZM18.3174 14.5234L18.812 14.4501C18.6934 13.6505 18.3204 12.9103 17.7491 12.3389L17.3955 12.6924L17.0419 13.0459C17.4618 13.4658 17.7357 14.0097 17.8228 14.5968L18.3174 14.5234ZM17.3955 12.6924L17.7491 12.3388C17.1777 11.7674 16.4372 11.3946 15.6379 11.2759L15.5645 11.7705L15.491 12.2651C16.0782 12.3523 16.6222 12.6262 17.042 13.0459L17.3955 12.6924ZM20.2344 9.36328V9.86328V9.86342L20.7344 9.86328L21.2344 9.86314C21.2342 9.31117 20.7868 8.86328 20.2344 8.86328V9.36328ZM20.7344 9.86328H20.2344V10.3633V10.8633C20.7867 10.8633 21.2344 10.4156 21.2344 9.86328H20.7344ZM20.2344 10.3633V9.86328H20.2236V10.3633V10.8633H20.2344V10.3633ZM20.2236 10.3633L20.224 9.86328H20.2236H19.7236H19.2236C19.2236 10.4158 19.6718 10.8629 20.2233 10.8633L20.2236 10.3633ZM19.7236 9.86328L20.2236 9.86342L20.224 9.86328L20.2236 9.36328L20.2233 8.86328C19.6717 8.86365 19.2238 9.31095 19.2236 9.86314L19.7236 9.86328ZM20.2236 9.36328V9.86328H20.2344V9.36328V8.86328H20.2236V9.36328Z" fill="white"/>
</svg>
