<svg width="30" height="30" viewBox="0 0 30 30" fill="none" xmlns="http://www.w3.org/2000/svg">
<circle cx="15" cy="15" r="15" fill="black"/>
<g clip-path="url(#clip0_0_112)">
<path d="M11.9659 6.18066L12.0402 6.28906L15.8976 11.9043L20.7472 6.26758L20.8214 6.18066H22.8624L22.507 6.59375L16.8038 13.2227L23.0343 22.2891L23.3029 22.6807H18.0343L17.9601 22.5723L13.8751 16.627L8.74231 22.5938L8.66809 22.6807H6.62708L6.98254 22.2676L12.9689 15.3086L6.96594 6.57227L6.69641 6.18066H11.9659ZM14.1837 14.375L14.8029 15.2607L18.9464 21.1885H20.4581L15.5626 14.1875L14.9435 13.3018L11.0431 7.7207H9.53137L14.1837 14.375Z" fill="white" stroke="white" stroke-width="0.5"/>
</g>
<defs>
<clipPath id="clip0_0_112">
<rect width="16" height="16" fill="white" transform="translate(7 6.43066)"/>
</clipPath>
</defs>
</svg>
