<svg width="30" height="30" viewBox="0 0 30 30" fill="none" xmlns="http://www.w3.org/2000/svg">
<circle cx="15" cy="15" r="15" fill="black"/>
<path d="M22.075 7.13464C21.1628 6.21357 20.0765 5.48326 18.8792 4.98625C17.682 4.48925 16.3978 4.23551 15.1015 4.2398C9.66992 4.2398 5.2431 8.66662 5.2431 14.0982C5.2431 15.8391 5.7007 17.5302 6.55622 19.0224L5.16351 24.1356L10.3862 22.7628C11.8286 23.5487 13.4501 23.9665 15.1015 23.9665C20.533 23.9665 24.9599 19.5397 24.9599 14.1081C24.9599 11.4719 23.9352 8.9949 22.075 7.13464ZM15.1015 22.2953C13.6292 22.2953 12.1867 21.8974 10.9234 21.1513L10.6249 20.9722L7.52117 21.7879L8.34685 18.7638L8.14789 18.4554C7.32972 17.1493 6.89537 15.6394 6.89445 14.0982C6.89445 9.58183 10.5752 5.9011 15.0915 5.9011C17.2801 5.9011 19.3393 6.75662 20.8812 8.3085C21.6448 9.06838 22.25 9.97233 22.6615 10.9679C23.0731 11.9635 23.2828 13.0309 23.2787 14.1081C23.2986 18.6245 19.6178 22.2953 15.1015 22.2953ZM19.5979 16.1674C19.3492 16.048 18.1356 15.4511 17.9167 15.3616C17.6879 15.282 17.5288 15.2422 17.3597 15.4809C17.1905 15.7296 16.723 16.2867 16.5837 16.4459C16.4444 16.615 16.2952 16.6349 16.0465 16.5056C15.7978 16.3862 15.002 16.1176 14.0669 15.282C13.3308 14.6254 12.8433 13.8196 12.6941 13.5709C12.5548 13.3222 12.6742 13.1929 12.8035 13.0636C12.9129 12.9542 13.0522 12.7751 13.1716 12.6358C13.291 12.4966 13.3407 12.3871 13.4203 12.228C13.4999 12.0589 13.4601 11.9196 13.4004 11.8002C13.3407 11.6808 12.8433 10.4672 12.6443 9.9698C12.4454 9.4923 12.2365 9.55199 12.0873 9.54204H11.6098C11.4406 9.54204 11.182 9.60173 10.9532 9.85042C10.7343 10.0991 10.0977 10.696 10.0977 11.9096C10.0977 13.1233 10.983 14.2971 11.1024 14.4563C11.2218 14.6254 12.8433 17.1124 15.3104 18.1768C15.8973 18.4355 16.3549 18.5847 16.713 18.6941C17.3 18.8831 17.8372 18.8533 18.2649 18.7936C18.7424 18.724 19.7273 18.1967 19.9262 17.6197C20.1351 17.0428 20.1351 16.5553 20.0655 16.4459C19.9959 16.3365 19.8466 16.2867 19.5979 16.1674Z" fill="white"/>
</svg>
