<svg width="30" height="30" viewBox="0 0 30 30" fill="none" xmlns="http://www.w3.org/2000/svg">
<circle cx="15" cy="15" r="15" fill="black"/>
<path d="M20.75 6.25C21.5456 6.25 22.3087 6.56607 22.8713 7.12868C23.4339 7.69129 23.75 8.45435 23.75 9.25V21.25C23.75 22.0456 23.4339 22.8087 22.8713 23.3713C22.3087 23.9339 21.5456 24.25 20.75 24.25H8.75C7.95435 24.25 7.19129 23.9339 6.62868 23.3713C6.06607 22.8087 5.75 22.0456 5.75 21.25V9.25C5.75 8.45435 6.06607 7.69129 6.62868 7.12868C7.19129 6.56607 7.95435 6.25 8.75 6.25H20.75ZM20.75 8.25H8.75C8.48478 8.25 8.23043 8.35536 8.04289 8.54289C7.85536 8.73043 7.75 8.98478 7.75 9.25V21.25C7.75 21.5152 7.85536 21.7696 8.04289 21.9571C8.23043 22.1446 8.48478 22.25 8.75 22.25H20.75C21.0152 22.25 21.2696 22.1446 21.4571 21.9571C21.6446 21.7696 21.75 21.5152 21.75 21.25V9.25C21.75 8.98478 21.6446 8.73043 21.4571 8.54289C21.2696 8.35536 21.0152 8.25 20.75 8.25ZM10.75 13.25C10.9949 13.25 11.2313 13.34 11.4144 13.5027C11.5974 13.6655 11.7143 13.8897 11.743 14.133L11.75 14.25V19.25C11.7497 19.5049 11.6521 19.75 11.4772 19.9354C11.3022 20.1207 11.063 20.2322 10.8086 20.2472C10.5542 20.2621 10.3036 20.1793 10.1082 20.0157C9.91271 19.8521 9.7871 19.6201 9.757 19.367L9.75 19.25V14.25C9.75 13.9848 9.85536 13.7304 10.0429 13.5429C10.2304 13.3554 10.4848 13.25 10.75 13.25ZM13.75 12.25C13.9842 12.25 14.211 12.3321 14.3908 12.4822C14.5706 12.6322 14.6921 12.8406 14.734 13.071C14.9354 12.9547 15.1434 12.8502 15.357 12.758C16.024 12.473 17.023 12.316 17.925 12.599C18.398 12.749 18.873 13.029 19.225 13.506C19.54 13.931 19.71 14.448 19.744 15.029L19.75 15.25V19.25C19.7497 19.5049 19.6521 19.75 19.4772 19.9354C19.3022 20.1207 19.063 20.2322 18.8086 20.2472C18.5542 20.2621 18.3036 20.1793 18.1082 20.0157C17.9127 19.8521 17.7871 19.6201 17.757 19.367L17.75 19.25V15.25C17.75 14.92 17.67 14.766 17.618 14.695C17.5433 14.6023 17.4404 14.5363 17.325 14.507C16.977 14.397 16.476 14.455 16.143 14.597C15.643 14.811 15.185 15.147 14.873 15.458L14.75 15.59V19.25C14.7497 19.5049 14.6521 19.75 14.4772 19.9354C14.3022 20.1207 14.063 20.2322 13.8086 20.2472C13.5542 20.2621 13.3036 20.1793 13.1082 20.0157C12.9127 19.8521 12.7871 19.6201 12.757 19.367L12.75 19.25V13.25C12.75 12.9848 12.8554 12.7304 13.0429 12.5429C13.2304 12.3554 13.4848 12.25 13.75 12.25ZM10.75 10.25C11.0152 10.25 11.2696 10.3554 11.4571 10.5429C11.6446 10.7304 11.75 10.9848 11.75 11.25C11.75 11.5152 11.6446 11.7696 11.4571 11.9571C11.2696 12.1446 11.0152 12.25 10.75 12.25C10.4848 12.25 10.2304 12.1446 10.0429 11.9571C9.85536 11.7696 9.75 11.5152 9.75 11.25C9.75 10.9848 9.85536 10.7304 10.0429 10.5429C10.2304 10.3554 10.4848 10.25 10.75 10.25Z" fill="white"/>
</svg>
